<svg xmlns="http://www.w3.org/2000/svg" viewBox="0 0 1091.28 570.87"><defs><style>.cls-1{fill:#1d2679;}.cls-2{fill:#fff;}.cls-2,.cls-3{stroke:#1d2679;stroke-miterlimit:10;}.cls-3{fill:none;}</style></defs><g id="Layer_2" data-name="Layer 2"><path class="cls-1" d="M686.51,841.72l-9.07,30.6a80.42,80.42,0,0,1,20.64,15.84h-85l17.06-53.74,49.9-157.22H746L689.44,837.76l13.1-.18-4.94,10.26A94,94,0,0,0,686.51,841.72Z" transform="translate(-417.76 -677.2)"/><polygon class="cls-1" points="376.8 159.12 359.52 210.96 319.74 210.96 306.85 160.08 376.8 159.12"/></g><g id="Layer_3" data-name="Layer 3"><path class="cls-2" d="M742.24,906.88l-27.84,7.2a80.37,80.37,0,0,0-37-41.76l9.07-30.6a94,94,0,0,1,11.09,6.12l4.94-10.26,1.3-2.7H724l.61,2.4,12.89,50.88Z" transform="translate(-417.76 -677.2)"/><path class="cls-2" d="M625,999.05l-10.09,30.19-4.62-.44-7.68,13.92h-23L565.12,964,592,956.32a94,94,0,0,0,33,42.73Z" transform="translate(-417.76 -677.2)"/><path class="cls-2" d="M750.4,981.76c.39,24.82-15.59,47.73-39.84,56.64l-3.77-.36a334.21,334.21,0,0,1-9.88-34.82l2.61.14c4-8.31,3.49-13.86,2.4-17.28-4.92-15.48-30.38-16.55-75.28-32.81-12.67-4.59-22.82-8.92-29.36-11.83-2.91-1.9-22.14-14.9-25.44-39.84-4-29.89,18.58-49.55,20.16-50.88a97.26,97.26,0,0,1,38.18-16.3l-17.06,53.74H617a103.89,103.89,0,0,0,18.24,13.92c13.56,8.14,23.91,10,46.35,16.55,8.53,2.47,20.84,6.2,35.73,11.29C737.22,940,750.06,960,750.4,981.76Z" transform="translate(-417.76 -677.2)"/><line class="cls-3" x1="268.75" y1="164.52" x2="268.75" y2="164.51"/></g><g id="Layer_4" data-name="Layer 4"><path class="cls-1" d="M1509,1173.28c-295.17,65.16-527.63,86.2-639.6,69.12-30.76-4.69-84.7-13.61-133.92-54.72-44.67-37.32-65-84.09-74.4-111.84l-41.76,121.44H557.92l-40.32-115.2-38.4,115.2H417.76l70.08-212.16h61L590.56,1102l24.3-72.76L625,999.05l6.41-19.21h61q2,12.25,4.59,23.38a334.21,334.21,0,0,0,9.88,34.82c17.48,50.75,42.36,79.72,60.41,96.36,100.54,92.67,273.58,64.49,561.5,13.84,72.86-12.81,131.65-25.88,168.34-34.48Z" transform="translate(-417.76 -677.2)"/></g></svg>